<svg xmlns:xlink="http://www.w3.org/1999/xlink"
    xmlns="http://www.w3.org/2000/svg" version="1.1" viewBox="0.0 0.0 106.25196850393701 100.70603674540682" fill="none" stroke="none" stroke-linecap="square" stroke-miterlimit="10" style="width:16px">
    <clipPath id="p.0">
        <path d="m0 0l106.25197 0l0 100.70604l-106.25197 0l0 -100.70604z" clip-rule="nonzero"/>
    </clipPath>
    <g clip-path="url(#p.0)">
        <path fill="#000000" d="m0.77952754 50.304462l0 0c0 -27.344618 23.443357 -49.51181 52.362206 -49.51181l0 0c13.887321 0 27.205856 5.216408 37.025673 14.501674c9.819817 9.285265 15.336533 21.87879 15.336533 35.01014l0 0c0 27.344616 -23.44336 49.511814 -52.362206 49.511814l0 0c-28.918846 0 -52.362206 -22.167198 -52.362206 -49.511814z" fill-rule="evenodd" style="width:16px;height:16px"/>
        <path stroke="#000000" stroke-width="1.0" stroke-linejoin="round" stroke-linecap="butt" d="m0.77952754 50.304462l0 0c0 -27.344618 23.443357 -49.51181 52.362206 -49.51181l0 0c13.887321 0 27.205856 5.216408 37.025673 14.501674c9.819817 9.285265 15.336533 21.87879 15.336533 35.01014l0 0c0 27.344616 -23.44336 49.511814 -52.362206 49.511814l0 0c-28.918846 0 -52.362206 -22.167198 -52.362206 -49.511814z" fill-rule="evenodd"/>
        <path fill="#efefef" d="m94.47205 10.218691q-0.2597351 20.950481 -2.273346 47.74562q-0.4520645 5.9341545 -3.0905075 12.684196q-1.4026718 3.714363 -5.0737305 4.482193q-6.671608 1.3837128 -14.098656 -14.172001q-2.4048157 -4.96632 -5.725403 -13.698368l-5.0861015 -13.1383095l-2.3648605 12.776096l-3.5708542 27.2762q-0.2684822 2.4960632 -1.5165977 4.0606003q-1.0289612 3.9500885 -5.0243797 4.9836807q-4.591175 1.2326813 -13.06897 -16.135628q-4.331417 -8.951569 -10.179455 -24.608772l-3.5310268 -8.812527q-2.0332794 -5.3068542 -2.8743153 -9.025431q-0.57907295 -2.5603333 0.8399277 -4.64423q1.4190025 -2.0838966 3.9790897 -2.6640491q4.632538 -1.0498009 6.8740788 3.7612648q1.6058674 3.4170856 3.2930126 8.610125l2.9410725 8.753965l9.786884 26.55619q2.5194092 -20.309029 4.230427 -46.45883q0.48109055 -7.2224264 5.479355 -8.355107q4.815403 -1.0912409 8.231773 6.081065q3.1979485 6.7732124 8.925526 21.047848q5.9126205 14.8094635 9.746239 22.976658l0.6994858 -17.589561l0.34896088 -35.005257q0.073280334 -3.9257753 4.4010468 -4.906511q2.560089 -0.58015347 4.842621 0.7290063q2.2825317 1.3091598 2.8340302 3.747571q0.06893158 0.30480146 0.024673462 2.942305z" fill-rule="nonzero"/>
    </g>
</svg>